<svg width="312" height="333" viewBox="0 0 312 333" fill="none" xmlns="http://www.w3.org/2000/svg">
<path d="M241 53C252.046 53 261 61.9543 261 73V90.9951C260.997 87.9598 258.536 85.5 255.5 85.5H88.5C82.701 85.5 78 90.201 78 96V269.5C78 272.538 80.4624 275 83.5 275H73C61.9543 275 53 266.046 53 255V73C53 61.9543 61.9543 53 73 53H241Z" fill="white"/>
<path d="M188 0C199.046 1.03081e-06 208 8.95431 208 20V37.9951C207.997 34.9598 205.536 32.5 202.5 32.5H35.5C29.701 32.5 25 37.201 25 43V216.5C25 219.538 27.4624 222 30.5 222H20C8.95431 222 0 213.046 0 202V20C7.08729e-07 8.95431 8.95431 1.93277e-07 20 0H188Z" fill="white"/>
<rect x="104" y="111" width="208" height="222" rx="20" fill="white"/>
</svg>
