<svg width="165" height="165" viewBox="0 0 165 165" fill="none" xmlns="http://www.w3.org/2000/svg">
<path d="M3.66117 142.675C-1.22039 147.556 -1.22039 155.471 3.66117 160.353C8.54272 165.234 16.4573 165.234 21.3388 160.353L12.5 151.514L3.66117 142.675ZM164.014 12.4993C164.014 5.59572 158.418 -0.000717735 151.514 -0.000717735H39.0144C32.1108 -0.000717735 26.5144 5.59572 26.5144 12.4993C26.5144 19.4028 32.1108 24.9993 39.0144 24.9993H139.014V124.999C139.014 131.903 144.611 137.499 151.514 137.499C158.418 137.499 164.014 131.903 164.014 124.999V12.4993ZM12.5 151.514L21.3388 160.353L160.353 21.3381L151.514 12.4993L142.676 3.66045L3.66117 142.675L12.5 151.514Z" fill="white"/>
</svg>
