<svg width="404" height="323" viewBox="0 0 404 323" fill="none" xmlns="http://www.w3.org/2000/svg">
<path d="M9.42188 287.07V222.07C12.6219 280.87 49.0885 292.237 66.9219 290.57L365.922 241.57V280.57C366.322 312.97 338.422 322.07 324.422 322.57H46.9219C18.5219 321.37 10.0885 298.404 9.42188 287.07Z" fill="white"/>
<path d="M331.559 0.565424C353.341 -3.11518 373.983 11.5593 377.664 33.3418L402.657 181.254C406.338 203.036 391.664 223.678 369.882 227.359L71.6641 277.752C49.8816 281.432 29.2394 266.758 25.5586 244.976L0.565424 97.0625C-3.11509 75.2802 11.5585 54.6379 33.3408 50.957L331.559 0.565424ZM215.076 194.231C214.21 189.105 209.351 185.65 204.224 186.517L69.582 209.269C64.4551 210.135 61.0008 214.994 61.8672 220.121C62.7337 225.248 67.5927 228.702 72.7197 227.836L207.36 205.084C212.488 204.218 215.943 199.359 215.076 194.231ZM165.383 147.453C164.516 142.326 159.658 138.872 154.53 139.738L57.7227 156.097C52.5957 156.963 49.1414 161.822 50.0078 166.949C50.8744 172.076 55.7334 175.53 60.8603 174.664L157.668 158.306C162.795 157.439 166.249 152.58 165.383 147.453ZM234.736 81.3564C233.87 76.2292 229.011 72.7752 223.884 73.6416L48.207 103.327C43.0803 104.194 39.6262 109.052 40.4922 114.179C41.3586 119.306 46.2176 122.761 51.3447 121.895L227.021 92.209C232.149 91.3426 235.603 86.4836 234.736 81.3564Z" fill="white"/>
</svg>
