<svg width="286" height="311" viewBox="0 0 286 311" fill="none" xmlns="http://www.w3.org/2000/svg">
<path d="M226 44C237.046 44 246 52.9543 246 64V81.9951C245.997 78.9598 243.536 76.5 240.5 76.5H73.5C67.701 76.5 63 81.201 63 87V260.5C63 263.538 65.4624 266 68.5 266H58C46.9543 266 38 257.046 38 246V64C38 52.9543 46.9543 44 58 44H226Z" fill="white"/>
<path d="M188 0C199.046 1.03081e-06 208 8.95431 208 20V37.9951C207.997 34.9598 205.536 32.5 202.5 32.5H35.5C29.701 32.5 25 37.201 25 43V216.5C25 219.538 27.4624 222 30.5 222H20C8.95431 222 0 213.046 0 202V20C7.08729e-07 8.95431 8.95431 1.93277e-07 20 0H188Z" fill="white"/>
<rect x="78" y="89" width="208" height="222" rx="20" fill="white"/>
</svg>
