<svg width="172" height="170" viewBox="0 0 172 170" fill="none" xmlns="http://www.w3.org/2000/svg">
<rect x="10" y="10" width="152" height="150" rx="50" fill="black"/>
<path d="M136.503 44.099C137.046 43.8491 137.703 44.0848 137.847 44.6654C138.67 47.9714 138.28 54.249 131.504 59.599C139.337 63.2658 153.503 75.6992 147.503 96.099C141.503 116.499 121 118.599 111 118.599C109.666 118.432 106.5 118.599 102.5 118.599L98.0837 117.949L102 118.6L68.9997 118.599C64.9999 118.599 62.2784 118.432 60.9451 118.599C51.4996 118.599 30.4421 116.499 24.4421 96.099C18.4422 75.699 32.6088 63.2657 40.4421 59.599C33.6655 54.249 33.2762 47.9714 34.0984 44.6654C34.2428 44.085 34.8986 43.8494 35.4421 44.099C39.8806 46.1391 50.3763 49.2174 55.4421 50.599C71.1705 52.5171 82.0225 64.0939 85.9724 70.3314C89.9222 64.094 100.775 52.5171 116.504 50.599C121.57 49.2174 132.064 46.1391 136.503 44.099ZM75.4451 102.099L85.4451 114.599H86.4997L96.4997 102.099L85.9724 92.0463L75.4451 102.099Z" fill="white"/>
<circle cx="55" cy="86.5986" r="16" fill="black"/>
<circle cx="59" cy="81.5986" r="4" fill="white"/>
<circle cx="117" cy="86.5986" r="16" fill="black"/>
<circle cx="121" cy="81.5986" r="4" fill="white"/>
<mask id="path-7-outside-1_415_155" maskUnits="userSpaceOnUse" x="0" y="0" width="172" height="170" fill="black">
<rect fill="white" width="172" height="170"/>
<path d="M112 10C139.614 10 162 32.3858 162 60V110C162 137.614 139.614 160 112 160H60C59.7842 160 59.5687 159.999 59.3535 159.996C32.2524 159.653 10.3473 137.748 10.0039 110.646C10.0012 110.431 10 110.216 10 110V60C10 59.7842 10.0012 59.5687 10.0039 59.3535C10.3473 32.2524 32.2524 10.3473 59.3535 10.0039C59.5687 10.0012 59.7842 10 60 10H112Z"/>
</mask>
<path d="M162 60L172 60V60L162 60ZM59.3535 159.996L59.4802 149.997L59.3535 159.996ZM10.0039 110.646L20.0031 110.52L10.0039 110.646ZM10 110L0 110L0 110L10 110ZM10.0039 59.3535L20.0031 59.4802L20.0031 59.4802L10.0039 59.3535ZM59.3535 10.0039L59.4802 20.0031L59.3535 10.0039ZM112 10V20C134.091 20 152 37.9086 152 60L162 60L172 60C172 26.8629 145.137 0 112 0V10ZM162 60H152V110H162H172V60H162ZM162 110H152C152 132.091 134.091 150 112 150V160V170C145.137 170 172 143.137 172 110H162ZM112 160V150H60V160V170H112V160ZM60 160V150C59.8204 150 59.6476 149.999 59.4802 149.997L59.3535 159.996L59.2268 169.995C59.4898 169.999 59.7479 170 60 170V160ZM59.3535 159.996L59.4802 149.997C37.8028 149.722 20.2778 132.197 20.0031 110.52L10.0039 110.646L0.00470896 110.773C0.416841 143.298 26.702 169.583 59.2268 169.995L59.3535 159.996ZM10.0039 110.646L20.0031 110.52C20.001 110.352 20 110.18 20 110L10 110L0 110C7.35165e-09 110.252 0.00137638 110.51 0.00470896 110.773L10.0039 110.646ZM10 110H20V60H10H0V110H10ZM10 60H20C20 59.8204 20.001 59.6476 20.0031 59.4802L10.0039 59.3535L0.00470896 59.2268C0.00137639 59.4898 0 59.7479 0 60H10ZM10.0039 59.3535L20.0031 59.4802C20.2778 37.8028 37.8028 20.2778 59.4802 20.0031L59.3535 10.0039L59.2268 0.00470896C26.702 0.41684 0.416839 26.702 0.00470895 59.2268L10.0039 59.3535ZM59.3535 10.0039L59.4802 20.0031C59.6476 20.001 59.8204 20 60 20V10V0C59.7479 0 59.4898 0.00137639 59.2268 0.00470896L59.3535 10.0039ZM60 10V20H112V10V0H60V10Z" fill="url(#paint0_linear_415_155)" fill-opacity="0.56" mask="url(#path-7-outside-1_415_155)"/>
<defs>
<linearGradient id="paint0_linear_415_155" x1="86" y1="10" x2="86" y2="160" gradientUnits="userSpaceOnUse">
<stop stop-color="#3484FC"/>
<stop offset="0.466346" stop-color="#8F4CF3"/>
<stop offset="1" stop-color="#DB1EEC"/>
</linearGradient>
</defs>
</svg>
