<svg width="270" height="279" viewBox="0 0 270 279" fill="none" xmlns="http://www.w3.org/2000/svg">
<path d="M125.846 1.98361C130.074 -0.544196 135.32 -0.663708 139.659 1.66916L169.217 17.5608C170.972 18.5042 172.908 19.0621 174.896 19.1975L208.741 21.5022C213.981 21.8589 218.581 25.118 220.654 29.9436L232.587 57.7199C233.405 59.6243 234.636 61.3237 236.19 62.6945L262.089 85.5344C266.139 89.106 267.775 94.6889 266.291 99.8811L257.808 129.571C257.041 132.254 257.094 135.106 257.96 137.76L268.596 170.349C270.405 175.894 268.587 181.98 264.032 185.624L238.692 205.897C236.423 207.712 234.775 210.188 233.977 212.983L225.14 243.911C223.514 249.6 218.488 253.654 212.584 254.036L181.397 256.058C179.117 256.206 176.907 256.909 174.962 258.107L144.757 276.702C140.321 279.433 134.735 279.477 130.258 276.813L102.237 260.139C100.037 258.83 97.52 258.15 94.96 258.171L67.1954 258.405C61.7229 258.452 56.725 255.305 54.4014 250.35L39.8829 219.39C38.9755 217.455 37.6365 215.754 35.9698 214.416L8.17193 192.106C3.96089 188.726 2.0691 183.226 3.30962 177.971L10.3018 148.348C10.8692 145.944 10.7908 143.433 10.0743 141.07L0.60259 109.83C-0.957981 104.683 0.568873 99.0958 4.53032 95.4572L30.209 71.8723C31.7797 70.4295 32.9996 68.6467 33.7764 66.6604L46.8536 33.218C48.7678 28.323 53.2626 24.9125 58.4922 24.3869L91.3028 21.091C93.348 20.8855 95.3227 20.2317 97.087 19.177L125.846 1.98361ZM135.104 50.1613C85.9503 50.1614 46.1037 90.0081 46.1036 139.161C46.1036 188.315 85.9503 228.161 135.104 228.161C184.257 228.161 224.104 188.315 224.104 139.161C224.103 90.0081 184.257 50.1613 135.104 50.1613ZM135.104 63.1613C177.077 63.1613 211.103 97.1878 211.104 139.161C211.104 181.135 177.077 215.161 135.104 215.161C93.13 215.161 59.1036 181.135 59.1036 139.161C59.1037 97.1878 93.13 63.1614 135.104 63.1613ZM139.408 99.8694C138.211 96.1845 132.998 96.1847 131.8 99.8694L125.164 120.292C124.629 121.94 123.092 123.056 121.359 123.056H99.8858C96.0111 123.056 94.4004 128.015 97.5352 130.292L114.907 142.914C116.309 143.933 116.896 145.738 116.36 147.386L109.725 167.809C108.527 171.494 112.745 174.558 115.88 172.28L133.253 159.659C134.655 158.641 136.553 158.641 137.955 159.659L155.327 172.28C158.462 174.558 162.68 171.494 161.482 167.809L154.847 147.386C154.311 145.738 154.898 143.933 156.3 142.914L173.672 130.292C176.807 128.015 175.196 123.056 171.321 123.056H149.848C148.115 123.056 146.58 121.94 146.044 120.292L139.408 99.8694Z" fill="#4362FF"/>
</svg>
