<svg width="430" height="430" viewBox="0 0 430 430" fill="none" xmlns="http://www.w3.org/2000/svg">
<path d="M215 0C333.741 0 430 96.2588 430 215C430 333.741 333.741 430 215 430C96.2588 430 0 333.741 0 215C0 96.2588 96.2588 0 215 0ZM215 302C203.402 302 194 311.402 194 323C194 334.598 203.402 344 215 344C226.598 344 236 334.598 236 323C236 311.402 226.598 302 215 302ZM213.51 86C188.5 86 139.21 104.7 140.01 163.5C140.01 170.5 144.011 184.502 160.01 184.502C168.343 184.502 184.509 179.501 182.51 159.502C184.51 139.502 202.676 131.835 211.51 130.502C220.843 129.835 240.81 134.102 246.01 156.502C251.209 178.902 232 194.5 222.51 194.5H211.51C204.5 194.5 193.51 202.9 193.51 214.5V259.5C193.51 266.833 197.51 281.4 213.51 281C229.51 280.6 235.176 268.5 236.01 262.5V234.5C255.176 229.001 289.01 208.5 289.01 156.502C289.01 107.169 237 86.0001 213.51 86Z" fill="white"/>
</svg>
