<svg width="32" height="32" viewBox="0 0 32 32" fill="none" xmlns="http://www.w3.org/2000/svg">
<g clip-path="url(#clip0_424_17)">
<path d="M30.6693 5.33408V13.3341M30.6693 13.3341H22.6693M30.6693 13.3341L24.4826 7.52075C23.0496 6.08704 21.2768 5.03969 19.3295 4.47645C17.3823 3.91321 15.3241 3.85242 13.347 4.29976C11.3699 4.74711 9.53834 5.688 8.02323 7.03464C6.50812 8.38129 5.35883 10.0898 4.6826 12.0008M1.33594 26.6674V18.6674M1.33594 18.6674H9.33594M1.33594 18.6674L7.5226 24.4808C8.9556 25.9145 10.7284 26.9618 12.6757 27.5251C14.6229 28.0883 16.6811 28.1491 18.6582 27.7017C20.6353 27.2544 22.4669 26.3135 23.982 24.9669C25.4971 23.6202 26.6464 21.9117 27.3226 20.0008" stroke="#404040" stroke-width="3" stroke-linecap="round" stroke-linejoin="round"/>
</g>
<defs>
<clipPath id="clip0_424_17">
<rect width="32" height="32" fill="white"/>
</clipPath>
</defs>
</svg>
