<svg width="82" height="127" viewBox="0 0 82 127" fill="none" xmlns="http://www.w3.org/2000/svg">
<g filter="url(#filter0_if_356_168)">
<path d="M80.1768 62.7172C88.4717 80.8151 50.9733 126.814 45.3008 126.814C34.7437 126.814 37.76 106.705 40.5878 96.6509C26.2603 103.438 20.1649 101.992 18.9081 100.421C14.3836 95.1427 4.7858 46.7458 8.53952 24.071C10.4036 12.8118 56.6119 3.96224 70.7509 6.16163C83.9472 8.2144 66.6663 50.4635 58.4971 66.4876C69.0542 58.9468 78.9047 59.9416 80.1768 62.7172Z" fill="#1778FF"/>
</g>
<g filter="url(#filter1_f_356_168)">
<path d="M64.2536 67.098C66.0342 64.1318 56.3032 93.6032 50.1147 90.6629C48.0724 89.6927 43.7287 84.3093 45.395 78.3749C42.6542 83.0237 37.0534 90.0043 27.4924 91.6055C24.6472 91.3038 18.9969 92.5488 17.0455 83.6446C15.4951 76.5698 15.1797 59.9007 15.1797 52.9598C15.1918 45.419 19.6064 31.4977 33.2629 22.0819C45.0812 13.9335 51.0573 15.2551 56.3032 15.2554C60.2865 16.1608 65.6922 19.3674 65.6922 31.1353C65.6922 37.8776 64.2536 40.7054 61.4245 51.0526C60.1157 55.8395 55.6558 63.3277 56.3032 64.2703L56.3216 64.2971C57.0311 65.3306 61.45 71.7686 64.2536 67.098Z" fill="#37B9FF"/>
</g>
<g filter="url(#filter2_f_356_168)">
<path d="M28.2856 47.3009C12.45 43.5305 16.9924 32.9047 20.7448 26.5638C23.1298 22.5336 28.6005 21.0911 31.1156 20.9082C33.9581 20.9084 39.976 21.0967 41.4841 33.162C42.9923 45.2272 33.3135 47.6151 28.2856 47.3009Z" fill="white" fill-opacity="0.78"/>
</g>
<defs>
<filter id="filter0_if_356_168" x="7.17044" y="5.72081" width="74.3002" height="123.679" filterUnits="userSpaceOnUse" color-interpolation-filters="sRGB">
<feFlood flood-opacity="0" result="BackgroundImageFix"/>
<feBlend mode="normal" in="SourceGraphic" in2="BackgroundImageFix" result="shape"/>
<feColorMatrix in="SourceAlpha" type="matrix" values="0 0 0 0 0 0 0 0 0 0 0 0 0 0 0 0 0 0 127 0" result="hardAlpha"/>
<feOffset dx="-0.517065" dy="2.58532"/>
<feGaussianBlur stdDeviation="1.87436"/>
<feComposite in2="hardAlpha" operator="arithmetic" k2="-1" k3="1"/>
<feColorMatrix type="matrix" values="0 0 0 0 0.356201 0 0 0 0 0.925273 0 0 0 0 1 0 0 0 1 0"/>
<feBlend mode="overlay" in2="shape" result="effect1_innerShadow_356_168"/>
<feGaussianBlur stdDeviation="0.0517065" result="effect2_foregroundBlur_356_168"/>
</filter>
<filter id="filter1_f_356_168" x="0.00383186" y="-7.43866e-05" width="80.8673" height="106.781" filterUnits="userSpaceOnUse" color-interpolation-filters="sRGB">
<feFlood flood-opacity="0" result="BackgroundImageFix"/>
<feBlend mode="normal" in="SourceGraphic" in2="BackgroundImageFix" result="shape"/>
<feGaussianBlur stdDeviation="7.58793" result="effect1_foregroundBlur_356_168"/>
</filter>
<filter id="filter2_f_356_168" x="13.7124" y="17.4956" width="31.3409" height="33.2432" filterUnits="userSpaceOnUse" color-interpolation-filters="sRGB">
<feFlood flood-opacity="0" result="BackgroundImageFix"/>
<feBlend mode="normal" in="SourceGraphic" in2="BackgroundImageFix" result="shape"/>
<feGaussianBlur stdDeviation="1.70631" result="effect1_foregroundBlur_356_168"/>
</filter>
</defs>
</svg>
